<?xml version="1.0"?>
<svg xmlns="http://www.w3.org/2000/svg" xmlns:xlink="http://www.w3.org/1999/xlink" width="512" height="512" viewBox="0 0 512 512"><defs><linearGradient id="a" data-name="New Gradient Swatch 1" x1="11.861" y1="500.139" x2="518.803" y2="-6.803" gradientUnits="userSpaceOnUse"><stop offset="0" stop-color="#003f8a"/><stop offset="0.518" stop-color="#00d7df"/><stop offset="1" stop-color="#006df0"/></linearGradient><linearGradient id="b" x1="-50.139" y1="438.139" x2="456.803" y2="-68.803" xlink:href="#a"/><linearGradient id="c" x1="43.861" y1="532.139" x2="550.803" y2="25.197" xlink:href="#a"/></defs><g><path d="M431.36,80.64A248,248,0,1,0,80.64,431.36,248,248,0,1,0,431.36,80.64ZM24,256A231.984,231.984,0,0,1,414.28,86.4L356.69,144H340.28L310.66,99.56A8.033,8.033,0,0,0,304,96H208a8.033,8.033,0,0,0-6.66,3.56L171.72,144H160V128a8,8,0,0,0-8-8h-8V104a8,8,0,0,0-8-8H112a8,8,0,0,0-8,8v16H96a8,8,0,0,0-8,8v16a16.021,16.021,0,0,0-16,16V368a16.021,16.021,0,0,0,16,16h28.69L86.4,414.28A230.359,230.359,0,0,1,24,256ZM144,136v8H104v-8Zm-24-16v-8h8v8Zm56,40a8.033,8.033,0,0,0,6.66-3.56L212.28,112h87.44l29.62,44.44A8.033,8.033,0,0,0,336,160h4.69l-27.18,27.18A95.952,95.952,0,0,0,179.18,321.51L132.69,368H88V160Zm104.21,83.11a31.974,31.974,0,0,1-45.1,45.1ZM225.88,274.8a31.994,31.994,0,0,1,40.92-40.92Zm53-52.99a47.991,47.991,0,0,0-65.07,65.07l-23.17,23.17A79.938,79.938,0,0,1,302.05,198.64Zm-55.11,77.73a47.976,47.976,0,0,0,67.77-67.77l22.62-22.62A79.942,79.942,0,0,1,201.15,322.16Zm-33.94,33.95A95.953,95.953,0,0,0,325.49,197.83L363.31,160H424V368H155.31Zm230.22,86.56A231.975,231.975,0,0,1,97.72,425.6L139.31,384H424a16.021,16.021,0,0,0,16-16V160a16.021,16.021,0,0,0-16-16H379.31L425.6,97.72a231.975,231.975,0,0,1-5.55,322.33Z" fill="url(#a)"/><path d="M136,184H112a8,8,0,0,0-8,8V336a8,8,0,0,0,8,8h24a8,8,0,0,0,8-8V192A8,8,0,0,0,136,184Zm-8,144h-8V200h8Z" fill="url(#b)"/><path d="M368,208h40a8,8,0,0,0,8-8V176a8,8,0,0,0-8-8H368a8,8,0,0,0-8,8v24A8,8,0,0,0,368,208Zm8-24h24v8H376Z" fill="url(#c)"/></g></svg>
